<svg width="46" height="46" viewBox="0 0 46 46" fill="none" xmlns="http://www.w3.org/2000/svg">
<path d="M13.3573 13.3571C13.4908 13.2233 13.6494 13.1171 13.8241 13.0446C13.9987 12.9721 14.1859 12.9348 14.375 12.9348C14.5641 12.9348 14.7513 12.9721 14.926 13.0446C15.1006 13.1171 15.2592 13.2233 15.3928 13.3571L23 20.9673L30.6073 13.3571C30.7409 13.2235 30.8996 13.1175 31.0742 13.0451C31.2488 12.9728 31.436 12.9356 31.625 12.9356C31.814 12.9356 32.0012 12.9728 32.1758 13.0451C32.3504 13.1175 32.5091 13.2235 32.6428 13.3571C32.7764 13.4908 32.8824 13.6495 32.9548 13.8241C33.0271 13.9987 33.0643 14.1859 33.0643 14.3749C33.0643 14.5639 33.0271 14.7511 32.9548 14.9257C32.8824 15.1003 32.7764 15.259 32.6428 15.3926L25.0326 22.9999L32.6428 30.6071C32.7764 30.7408 32.8824 30.8995 32.9548 31.0741C33.0271 31.2487 33.0643 31.4359 33.0643 31.6249C33.0643 31.8139 33.0271 32.0011 32.9548 32.1757C32.8824 32.3503 32.7764 32.509 32.6428 32.6426C32.5091 32.7763 32.3504 32.8823 32.1758 32.9546C32.0012 33.027 31.814 33.0642 31.625 33.0642C31.436 33.0642 31.2488 33.027 31.0742 32.9546C30.8996 32.8823 30.7409 32.7763 30.6073 32.6426L23 25.0325L15.3928 32.6426C15.2591 32.7763 15.1004 32.8823 14.9258 32.9546C14.7512 33.027 14.564 33.0642 14.375 33.0642C14.186 33.0642 13.9988 33.027 13.8242 32.9546C13.6496 32.8823 13.4909 32.7763 13.3573 32.6426C13.2236 32.509 13.1176 32.3503 13.0453 32.1757C12.9729 32.0011 12.9357 31.8139 12.9357 31.6249C12.9357 31.4359 12.9729 31.2487 13.0453 31.0741C13.1176 30.8995 13.2236 30.7408 13.3573 30.6071L20.9674 22.9999L13.3573 15.3926C13.2234 15.2591 13.1172 15.1005 13.0447 14.9258C12.9722 14.7512 12.9349 14.564 12.9349 14.3749C12.9349 14.1858 12.9722 13.9986 13.0447 13.8239C13.1172 13.6493 13.2234 13.4907 13.3573 13.3571Z" fill="black"/>
</svg>
